<svg width="151" height="56" viewBox="0 0 151 56" fill="none" xmlns="http://www.w3.org/2000/svg">
<path d="M0 20.4851L6.7389 31.861L9.4292 29.2951L2.09463 18.3574L0 20.4851Z" fill="url(#paint0_linear_2_82)"/>
<path d="M100.057 11.5446L99.7964 13.0441L103.02 12.0041L102.618 10.1672L100.057 11.5446Z" fill="#0071B9"/>
<path d="M81.277 1.3034L70.9059 13.1965L73.924 12.3285L83.7981 0L81.277 1.3034Z" fill="url(#paint1_linear_2_82)"/>
<path d="M136.76 17.5645L139.305 16.2079L138.578 22.5826L136.76 17.5645Z" fill="#1D2C5E"/>
<path d="M120.937 21.6524L123.2 22.1158L126.088 20.7137L123.582 19.7785L120.937 21.6524Z" fill="#1D2C5E"/>
<path d="M42.9226 14.8838L43.2846 22.271L46.4428 20.9951L45.4974 13.5025L42.9226 14.8838Z" fill="url(#paint2_linear_2_82)"/>
<path d="M123.386 12.6793L120.844 14.0511L120.937 21.6524L123.496 20.3411L124.299 16.6618L123.386 12.6793Z" fill="url(#paint3_linear_2_82)"/>
<path d="M123.037 22.1371L120.238 47.0003L124.712 46.1177L125.589 20.7961L123.037 22.1371Z" fill="#312370"/>
<path d="M128.516 48.1922L128.596 51.5639L137.185 54.3013L139.741 52.9463L131.313 46.417L122.776 45.6672L120.238 47.0003L128.516 48.1922Z" fill="#21386E"/>
<path d="M96.6528 42.2619L98.7637 41.1249L100.109 43.6107L102.098 42.5174L102.495 45.7944L114.982 48.009L117.477 46.6366L100.258 36.145L88.0434 38.2385L85.6607 40.5029L96.6528 42.2619Z" fill="#21386E"/>
<path d="M92.6765 11.6712L90.1767 13.0469L85.6607 40.5029L88.1902 39.1889L92.5252 23.7728L92.6765 11.6712Z" fill="url(#paint4_linear_2_82)"/>
<path d="M72.7287 15.3511L70.7372 16.4119L70.9048 17.0759L75.6443 14.0651L73.5732 11.8427L70.9059 13.1965L72.7287 15.3511Z" fill="#1D2C5E"/>
<path d="M78.1738 47.7831L57.8102 37.6961L60.3666 35.7634L80.7077 46.4147L78.1738 47.7831Z" fill="#21386E"/>
<path d="M59.7238 10.2417L56.6379 16.0936L59.8987 15.1062L62.2516 8.87051L59.7238 10.2417Z" fill="#1D2C5E"/>
<path d="M31.7349 34.4168L29.1315 36.2038C29.1315 36.2038 29.684 39.1087 30.3962 41.1294C31.1124 43.1574 32.817 44.7863 32.817 44.7863C33.9119 45.8566 35.254 46.6355 36.7513 47.0726C39.631 47.9014 42.8811 47.3612 45.6711 45.582C46.4007 45.1203 47.3909 44.3812 47.9994 43.7979C45.257 45.4621 31.7349 34.4168 31.7349 34.4168Z" fill="url(#paint5_linear_2_82)"/>
<path d="M45.6672 21.6686L48.0431 47.8801L57.7508 46.4439L60.3481 45.0827L48.3009 20.0974L45.8224 20.9323L43.2845 22.271L45.6672 21.6686Z" fill="#1D2C5E"/>
<path d="M9.27397 30.7728L20.1203 55.3715L30.4248 52.0475L32.9408 50.3563L11.553 27.9783L8.87667 29.582L6.73889 31.861L9.27397 30.7728Z" fill="url(#paint6_linear_2_82)"/>
<path d="M116.769 42.3784L116.914 43.586C117.802 43.4863 118.734 43.3714 119.532 43.0873C120.463 42.769 122.483 41.8691 123.251 41.2062C122.963 41.3109 118.229 42.5381 116.769 42.3784Z" fill="#1D2C5E"/>
<path d="M80.3121 36.0973L80.6987 38.0418C82.7844 37.7314 84.5748 36.9597 86.3349 35.9018C87.4393 35.2439 88.652 34.2515 89.0347 33.987C88.7646 34.1596 80.3121 36.0973 80.3121 36.0973Z" fill="#1D2C5E"/>
<path d="M22.9401 53.0393L22.1348 51.2501L11.8511 28.2982L11.6398 27.8275L11.1725 28.0433L10.8604 28.1867L9.02966 29.0855C8.75957 28.6328 8.31128 27.874 7.99972 27.3479L3.86033 20.3523L2.77771 18.5261L4.56862 17.3914C6.2626 16.311 8.17567 15.313 10.2569 14.4243C14.4007 12.6591 18.6303 11.7256 22.4873 11.7256C23.756 11.7256 24.9837 11.8281 26.1369 12.0287C28.0595 12.2478 29.8376 12.8788 31.3063 13.8572C33.495 15.081 35.2181 16.9795 36.1915 19.2254C36.9906 21.0713 37.1463 23.2331 36.6387 25.4757L36.3405 26.7931L37.4349 25.9996C38.1724 25.4645 38.9737 25.0072 39.8165 24.6402C41.2734 24.0244 42.7808 23.71 44.291 23.71C45.7204 23.71 47.072 23.993 48.3087 24.5494L49.1061 24.9069L49.026 24.0367L48.6791 20.2761L48.6231 19.6799L48.0426 19.8306L46.3004 20.2823L45.995 13.879L58.7567 9.80184L58.6536 14.7784L59.6146 15.025L62.4018 9.6836L70.7495 17.0871L71.0975 17.397L71.4371 17.0776C72.5808 16.0028 73.9363 15.1404 75.4655 14.5145L76.1043 14.2533L75.6667 13.7193L74.1616 11.8847L83.7454 0.837738L88.7646 8.32697L81.0815 12.4568L79.3752 13.3747L81.3123 13.4156C84.9547 13.4924 88.1801 15.0334 90.393 17.7539L91.1932 18.7407L91.7087 19.3745L90.8525 20.2834L90.2815 20.8897L88.3617 22.9373L88.0047 23.3178L88.3908 23.6663L90.1901 25.2863L90.8861 25.9122L91.0352 24.9887L91.7255 20.7149L91.902 19.6177L91.9077 19.6239L92.0892 18.5031L93.1197 12.1935H102.32H102.751L102.824 11.7681L103.004 10.6878H111.289L113.296 23.3637L113.427 24.1846L114.099 23.6966C114.912 23.1059 115.81 22.6201 116.77 22.2531C118.047 21.7712 119.361 21.5252 120.674 21.5252C122.236 21.5252 123.753 21.886 125.065 22.568C125.1 22.5932 125.149 22.6257 125.216 22.6526L125.839 22.9025L125.912 22.2346L126.062 20.8533L126.112 20.4005L125.666 20.3013L123.986 19.9259L123.904 13.3181L136.712 16.1373L137.675 20.8919L138.669 20.9116L139.662 16.8198L150.342 19.4171L139.427 52.312L131.617 49.8593L131.562 46.8294L131.554 46.3951L131.123 46.3346L123.329 45.2346L123.77 41.2734L123.875 40.3309L123.032 40.7629C122.632 40.9663 122.246 41.1372 121.88 41.2717C120.606 41.7536 119.301 41.9974 118.001 41.9974C117.625 41.9974 117.248 41.9767 116.88 41.9352L116.214 41.8607L116.319 42.5219L116.867 46.0057L105.497 44.0001L104.901 38.8302L104.71 37.1732L103.944 38.6543L102.635 41.1787L100.225 36.7294L99.5 35.393L99.2714 36.8947L98.7463 40.3387L88.7808 38.7703L89.5536 34.0436L89.7301 32.9599L88.7881 33.523C87.1569 34.5009 85.2836 35.2366 83.0629 35.7729C82.2868 35.9623 81.476 36.0934 80.6506 36.1618L80.1832 36.201V36.67V45.5899L60.5577 35.8906L59.8202 35.5269L59.8208 36.349L59.8343 44.6445L51.0596 45.9373L50.6908 41.9537L50.5911 40.8879L49.8262 41.6376C48.6668 42.7724 47.3606 43.6521 45.9446 44.2528C44.496 44.8687 43.0016 45.1802 41.5037 45.1802C40.0081 45.1802 38.6027 44.8676 37.3262 44.2562C34.9615 43.1187 33.2558 41.0549 32.5239 38.4509C32.1754 37.2276 32.0807 35.936 32.2426 34.6102L32.4158 33.198L31.3858 34.1787C30.6596 34.8679 29.8773 35.5263 29.0592 36.131L28.7818 36.3355L28.8693 36.6689L31.8252 48.0151L32.3474 50.0285L30.3682 50.6578L24.8027 52.4397L22.9401 53.0393V53.0393ZM25.4382 22.5803C25.1513 22.5803 24.8548 22.6067 24.5561 22.6604L24.1773 22.7333L23.6181 22.8409L23.7868 23.3856L23.8966 23.7397L25.488 28.9471L25.6472 29.4475L25.8836 30.1984L26.472 29.6751L26.8626 29.3271C28.4053 27.9407 28.946 26.5331 28.6205 24.7579C28.4154 23.6926 27.5905 23.162 27.1164 22.9401C26.6211 22.7014 26.054 22.5803 25.4382 22.5803V22.5803ZM68.1013 22.7512L67.1066 23.7195L64.4869 26.2653L63.9165 26.8194L64.659 27.1064L67.4686 28.1907L68.3316 28.5229L68.1534 27.6163C67.9214 26.4451 67.8609 25.2729 67.9696 24.1325L68.1013 22.7512ZM79.5416 19.8558C78.4551 19.8558 77.4038 20.3232 76.6569 21.1368C75.5238 22.3741 75.3036 24.1992 76.1094 25.6774L76.3229 26.0781L76.6664 26.7186L77.15 26.1773L77.461 25.8327L81.3039 21.445L81.606 21.0976L82.0907 20.5406L81.3992 20.2845L80.9683 20.1254C80.5161 19.9483 80.0319 19.8558 79.5416 19.8558V19.8558Z" fill="#FFCB05"/>
<path d="M85.4203 26.3549C85.3834 26.3874 85.3492 26.4289 85.32 26.4715C85.3587 26.4362 85.3962 26.4053 85.436 26.3728L85.4203 26.3549Z" fill="#7D7F68"/>
<path d="M88.7338 23.2858L90.653 21.2383L89.9962 21.9353L90.0153 21.8474L89.4348 22.4598L87.5172 24.5012L89.3137 26.1173L89.6393 24.1045L90.5336 24.9053L88.7338 23.2858Z" fill="#7D7F68"/>
<path d="M88.7338 23.2858L90.5336 24.9052L91.2229 20.6319L90.653 21.2382L88.7338 23.2858Z" fill="#7D7F68"/>
<path d="M64.8422 26.6295L64.8713 26.6418L64.8422 26.6295Z" fill="#7D7F68"/>
<path d="M75.4678 28.407C75.6213 28.5622 75.4795 28.4507 75.6516 28.5683L76.8255 27.7407C76.6513 27.6174 76.4787 27.4852 76.3201 27.3372C74.6166 25.785 75.0593 22.294 76.1643 20.3831C73.2555 22.7299 73.4068 26.3426 75.4678 28.407" fill="#C7A008"/>
<path d="M89.6393 30.3615C87.7005 31.9652 85.4904 33.0109 82.5704 33.7164C81.9321 33.8626 81.3067 33.9691 80.6948 34.0229C76.0601 34.4785 72.1717 32.3502 70.6963 28.8984C70.5125 28.4804 70.3707 28.0573 70.2637 27.6056C69.5812 24.6985 70.164 22.1006 71.6002 20.0643C71.7425 19.867 71.8921 19.6782 72.049 19.486C71.9756 19.5488 71.9005 19.6025 71.8394 19.6614C71.2875 20.1528 70.7988 20.6913 70.3836 21.2797C68.9457 23.3161 68.363 25.9156 69.0516 28.8183C69.157 29.2699 69.2965 29.6991 69.4764 30.1076C70.9524 33.5673 74.8419 35.6944 79.4727 35.2422C80.0896 35.1828 80.7128 35.0808 81.3516 34.9267C84.275 34.2213 86.4834 33.1801 88.4222 31.5763C88.8957 31.1869 89.3524 30.7621 89.7957 30.2976L89.7548 30.2584C89.7105 30.2965 89.6774 30.3295 89.6393 30.3615" fill="#C7A008"/>
<path d="M56.9764 21.5733L62.1547 14.2965L61.9446 14.1026L56.9484 21.1206L56.9764 21.5733Z" fill="#C7A008"/>
<path d="M91.2229 20.6319L90.5336 24.9052L89.6393 24.1045L89.3137 26.1173L87.5172 24.5012L89.4348 22.4598L90.0153 21.8474L89.9962 21.9353L90.653 21.2382L91.2229 20.6319Z" fill="#C7A008"/>
<path d="M84.8241 8.64583L86.6375 7.86805L83.3229 3.61435L82.2369 5.13125L84.8241 8.64583Z" fill="#C7A008"/>
<path d="M34.6219 19.184C26.2524 8.98819 11.1714 14.4685 5.75098 19.2378L5.96279 19.6037C7.20904 18.8887 8.52308 18.242 9.9055 17.662C15.2894 15.3623 20.4224 14.6882 24.5376 15.4082C25.9923 15.5752 27.5333 16.0067 28.8743 16.9044C30.7308 17.9439 32.1378 19.4227 32.9604 21.3178C34.4202 24.6744 33.1341 29.1377 29.6963 32.8742C34.0083 28.9174 36.9586 25.1316 34.6219 19.184Z" fill="#C7A008"/>
<path d="M51.6973 31.0625C51.658 30.8776 51.6188 30.6899 51.5589 30.5089C51.0876 28.8138 50.075 27.4605 48.7475 26.56C46.5991 25.1008 43.6 24.801 40.6111 26.063C39.0387 26.7427 37.6714 27.7889 36.5905 29.0385C37.4215 28.3235 38.3713 27.7278 39.3973 27.284C42.3796 26.0181 45.3786 26.3174 47.5343 27.7749C48.8618 28.6765 49.866 30.0292 50.3474 31.7221C50.4006 31.9036 50.4421 32.0941 50.4835 32.2852C50.6113 32.9296 50.6707 33.5813 50.646 34.2487C50.5838 36.1999 49.8604 38.1645 48.6573 39.8422C48.4634 40.1079 48.2595 40.3555 48.0482 40.601C48.733 40.0098 49.3443 39.3559 49.8666 38.6235C51.0747 36.9564 51.7964 34.9878 51.8603 33.0249C51.8872 32.3698 51.8329 31.7075 51.6973 31.0625Z" fill="#C7A008"/>
<path d="M43.456 28.5739C43.4442 28.5924 44.6703 27.3591 44.6563 27.3591C43.1226 27.3008 42.4743 28.7471 42.421 28.8608C42.7359 28.7084 43.0834 28.6092 43.456 28.5739" fill="#C7A008"/>
<path d="M46.3447 30.3419C46.4069 30.5498 46.4394 30.7565 46.4394 30.9829C46.4394 31.3023 46.3682 31.6089 46.2388 31.8913C46.4842 31.763 48.2578 30.9028 47.5702 29.0805C47.6072 29.1365 46.3004 30.3363 46.3447 30.3419Z" fill="#C7A008"/>
<path d="M39.3682 31.3561C39.3682 30.6064 40.6519 28.7874 41.052 28.1806C39.0247 29.4694 38.1516 31.2088 38.1516 32.5788C38.1516 34.9262 40.2143 36.8141 42.6805 36.8141C43.8471 36.8141 45.9838 36.1971 47.3813 33.9355C46.6489 34.4174 44.7874 35.5706 43.8107 35.5706C41.3451 35.5701 39.3682 33.7164 39.3682 31.3561Z" fill="#C7A008"/>
<path d="M56.7237 33.5046L56.7556 43.0055L58.2636 43.0918L57.9655 32.2611L56.7237 33.5046Z" fill="#C7A008"/>
<path d="M48.0684 15.4161L48.0992 16.26L55.2455 14.1323L55.775 23.2326L56.9675 21.5616L56.713 12.4294L48.0684 15.4161Z" fill="#C7A008"/>
<path d="M69.6709 18.6746L62.9583 12.514L62.1547 14.2965L68.0626 19.8469L69.6709 18.6746Z" fill="#C7A008"/>
<path d="M68.6504 30.1553L60.7695 27.5496L59.6213 28.7622L67.4726 31.9042C68.363 33.5819 69.7123 35.0192 71.4113 36.0699C73.056 37.0757 74.9355 37.6781 76.9259 37.8692V41.7469L78.143 42.3543L78.5279 36.5288L68.6504 30.1553V30.1553Z" fill="#C7A008"/>
<path d="M81.3056 29.0592C83.2411 28.5924 84.3573 27.5827 85.3184 26.4715C84.5972 27.0632 80.9817 27.8511 80.3743 28.0567L79.1835 29.3248C79.7276 29.373 80.6377 29.2262 81.3056 29.0592Z" fill="#C7A008"/>
<path d="M77.7854 15.6582C74.2165 16.1255 72.3566 19.1218 72.049 19.4866C73.367 18.3731 75.0189 17.5466 76.8793 17.1061C81.2955 16.0381 85.1895 17.3846 87.5962 20.3602L89.0857 19.0993C86.7019 16.1754 82.2005 14.5935 77.7854 15.6582" fill="#C7A008"/>
<path d="M89.7553 30.2584C90.1857 29.8964 90.9506 29.5305 91.3574 29.104L86.5786 24.8341C86.2127 25.2717 85.881 25.9929 85.4344 26.3723L89.7553 30.2584V30.2584Z" fill="#C7A008"/>
<path d="M114.279 41.701C109.265 37.5801 109.565 28.7437 112.026 25.9402L109.817 12.0909L104.986 12.7146L104.771 13.9345H108.427L110.363 26.5C107.899 29.3125 106.709 33.0804 107.532 36.5299C108.169 39.1956 109.807 41.353 112.164 42.6009C112.401 42.7309 112.646 42.8441 112.896 42.9511L112.927 43.1355L114.365 43.3624C114.365 43.3619 114.514 41.8209 114.279 41.701V41.701Z" fill="#C7A008"/>
<path d="M95.0093 14.1289L94.8014 15.3494H100.312L101.935 24.2485L103.158 23.0135L101.873 13.619L95.0093 14.1289Z" fill="#C7A008"/>
<path d="M104.443 31.4049L102.664 36.001L103.104 37.1968L105.649 30.1973L104.443 31.4049Z" fill="#C7A008"/>
<path d="M99.1593 28.5101L97.9343 29.7333L96.6214 38.0345L97.8788 38.5147L99.1593 28.5101Z" fill="#C7A008"/>
<path d="M123.909 25.8584C124.63 26.3734 125.245 27.0251 125.708 27.8001C126.073 28.3946 126.35 29.0603 126.526 29.791C127.126 32.2863 126.409 34.985 124.822 37.1503C124.662 37.3699 124.486 37.5823 124.318 37.7908C124.963 37.2366 132.79 31.4632 125.143 23.8804C116.732 21.1077 113.548 26.5953 113.25 26.9433C114.139 26.1879 115.164 25.5631 116.275 25.1384C119.122 24.0602 121.922 24.434 123.909 25.8584" fill="#C7A008"/>
<path d="M119.669 26.4053C119.692 26.4586 120.876 25.1714 120.9 25.1714C119.403 25.2331 118.685 25.9554 118.758 26.2888C118.669 26.4182 118.596 26.5466 118.539 26.6883C118.858 26.5292 119.449 26.407 119.669 26.4053Z" fill="#C7A008"/>
<path d="M122.483 28.2865C122.536 28.4871 122.562 28.6972 122.558 28.9231C122.544 29.2122 122.469 29.4772 122.359 29.7244C122.587 29.6218 124.401 29.0587 123.708 27.0627C123.726 27.1192 122.463 28.2876 122.483 28.2865" fill="#C7A008"/>
<path d="M118.509 34.6242C120.202 34.6965 122.074 33.6564 123.417 31.8184C119.972 32.5251 116.35 26.7881 116.713 26.2266C115.411 27.1702 114.259 28.9903 114.207 30.2623C114.117 32.6209 116.037 34.5255 118.509 34.6242Z" fill="#C7A008"/>
<path d="M137.388 49.5718L138.196 50.112L148.051 20.5333L140.675 18.8287L140.583 20.5613L146.533 21.8816L137.388 49.5718Z" fill="#C7A008"/>
<path d="M125.684 15.6582L125.748 17.3101L133.591 18.8853L136.61 33.2042L137.832 31.9725L134.956 17.5062L125.684 15.6582Z" fill="#C7A008"/>
<path d="M131.719 31.9753L129.56 44.1867L130.803 44.5896L132.947 30.7728L131.719 31.9753Z" fill="#C7A008"/>
<path d="M29.9485 48.6674L26.2804 35.3683L24.9377 36.3075L28.3375 49.0484L29.9485 48.6674Z" fill="#C7A008"/>
<path d="M28.9964 28.6692C28.1503 29.5669 26.2748 31.3113 25.2062 31.9994L24.5573 29.916L23.1362 25.3479L22.2329 22.2553L21.3514 23.3867L22.2514 26.4838L23.6725 31.0485L24.3186 33.1381C25.7817 32.1956 27.9099 30.4265 28.9964 28.6692" fill="#C7A008"/>
<path d="M80.9711 20.8057C79.8134 20.3602 78.1738 20.4941 77.2884 21.463C77.0827 21.6877 76.6826 22.2609 76.556 22.517C77.4128 21.8356 78.9387 21.6882 79.9389 22.0491L80.9711 20.8057V20.8057Z" fill="#7D7F68"/>
<path d="M27.9379 24.9321C27.8079 24.2485 27.1383 23.7055 26.8099 23.5548C26.2227 23.2712 25.2067 23.227 24.4648 23.362C24.5982 23.8226 24.7512 24.3628 24.8162 24.5842C25.1171 24.6262 25.6113 24.7158 25.8708 24.8341C26.1963 24.991 26.7657 25.3608 26.8979 26.0489C27.075 26.9674 27.0285 27.8259 26.6457 28.5229C27.6953 27.493 28.2047 26.3728 27.9379 24.9321" fill="#7D7F68"/>
<path d="M29.7759 24.9131C29.2721 22.2099 25.7374 20.7199 22.2329 22.6313L23.1362 25.7251L24.5573 30.2971L25.2056 32.3794C27.8348 30.6887 30.4775 28.6574 29.7759 24.9131ZM26.2949 29.0699C25.9122 27.8208 25.0728 25.1238 25.0728 25.1238C25.0767 25.1361 24.9075 24.5466 24.7069 23.8719C25.4499 23.7391 26.1638 23.7929 26.7511 24.0754C27.0794 24.2317 27.6566 24.5965 27.7827 25.288C28.073 26.8424 27.549 27.9519 26.2949 29.0699V29.0699Z" fill="#3C5AA6"/>
<path d="M82.8057 20.6241C80.8467 18.827 77.8017 18.9665 76.0147 20.9239C74.2171 22.8779 74.3583 25.9246 76.3201 27.7143C76.4798 27.8684 76.6524 27.9945 76.8261 28.1184L83.1453 20.962C83.0338 20.8454 82.9217 20.7294 82.8057 20.6241V20.6241ZM76.839 25.6578C76.2209 24.5231 76.3459 23.0824 77.2699 22.0726C78.1586 21.1043 79.5203 20.8286 80.6814 21.2764L76.839 25.6578V25.6578Z" fill="#3567B0"/>
<path d="M91.2492 19.8385L87.7498 23.2102L91.0744 26.1958L91.2492 19.8385Z" fill="#1E2D5F"/>
<path d="M123.699 27.0626C123.752 27.275 123.779 27.4852 123.773 27.7087C123.714 29.0458 122.457 30.0779 120.959 30.0079C119.462 29.9563 118.286 28.8199 118.344 27.4863C118.395 26.2361 119.509 25.2465 120.884 25.1832C120.623 25.1244 120.35 25.0935 120.066 25.0834C117.559 24.9753 115.511 26.7505 115.424 28.9606C115.328 31.3242 117.223 33.2513 119.689 33.3583C122.199 33.4586 124.247 31.6772 124.346 29.3248C124.376 28.5095 124.135 27.7278 123.699 27.0626Z" fill="#3466AF"/>
<path d="M47.6604 29.7619C47.6604 31.1045 46.4394 32.1804 44.9438 32.1804C43.4443 32.1804 42.2277 31.104 42.2277 29.7619C42.2277 28.5106 43.298 27.479 44.6698 27.3591C44.407 27.3115 44.1335 27.284 43.8511 27.284C41.3451 27.284 39.3682 29.1427 39.3682 31.3561C39.3682 33.7181 41.3457 35.5706 43.8107 35.5706C46.3189 35.5706 48.2942 33.7169 48.2942 31.3561C48.2942 30.5386 48.0241 29.7681 47.5596 29.1338C47.6223 29.3248 47.6604 29.5366 47.6604 29.7619" fill="url(#paint7_linear_2_82)"/>
<path d="M139.288 16.2012L138.176 20.7877L137.148 15.7092L123.386 12.6798L123.482 20.3321L125.556 20.7972L125.407 22.1774C125.38 22.1668 125.363 22.1505 125.348 22.1387C122.777 20.7821 119.59 20.6431 116.59 21.7762C115.584 22.1612 114.65 22.6672 113.803 23.2824L111.727 10.1767H102.574L102.322 11.6835H92.6888L91.5888 18.4207L90.7897 17.4339C88.4553 14.566 85.0713 12.9864 81.3224 12.9079L89.5015 8.51188L83.7981 0.000549316L73.4936 11.874L75.2722 14.0426C73.6612 14.7011 72.2536 15.6089 71.0874 16.7055L62.2522 8.86659L59.163 14.7874L59.2818 9.09745L45.4683 13.5103L45.8224 20.9317L48.1726 20.3221L48.52 24.0832C45.8348 22.8773 42.6071 22.907 39.6136 24.1717C38.7266 24.5584 37.8995 25.0336 37.1374 25.5861C37.6552 23.2948 37.5325 21.036 36.6594 19.0215C35.6283 16.641 33.8139 14.6736 31.5893 13.4324C30.0298 12.3935 28.1711 11.7463 26.226 11.5261C21.4462 10.6906 15.7064 11.5485 10.0574 13.9552C7.98068 14.8412 6.04351 15.8464 4.2963 16.9593L2.08792 18.3597L3.42158 20.6118L7.56041 27.6067C7.56041 27.6067 8.82683 29.7501 8.83523 29.749L11.0733 28.649L11.3854 28.5056L21.6697 51.4585L22.6616 53.6647L24.9579 52.925L30.5223 51.1425L32.961 50.3675L32.3177 47.8851L29.3624 36.5406C30.2125 35.9113 31.0059 35.2439 31.7383 34.5451C31.573 35.9007 31.6599 37.273 32.0331 38.5865C32.8058 41.3367 34.6068 43.5092 37.106 44.7129C39.8053 46.0101 43.0985 46.0135 46.1452 44.7213C47.6733 44.073 49.0322 43.1271 50.1837 42.0013L50.6034 46.5195L60.3481 45.0844L60.333 36.3467L80.6948 46.4102V36.6661C81.5118 36.5977 82.3457 36.4689 83.184 36.2632C85.4265 35.7213 87.3458 34.9783 89.0509 33.9568L88.1958 39.19L99.1744 40.9176L99.7768 36.967L102.644 42.2641L104.397 38.8868L105.037 44.4322L117.485 46.6265L116.825 42.439C118.529 42.6317 120.325 42.4031 122.06 41.7486C122.47 41.5967 122.876 41.4118 123.264 41.2134L122.768 45.6689L131.053 46.8378L131.114 50.2353L139.753 52.9468L151 19.0478L139.288 16.2012V16.2012ZM90.653 21.2388L91.224 20.6319L90.5342 24.9058L88.7349 23.2852L90.653 21.2388ZM83.3582 3.78019L86.3741 7.87699L77.7518 12.1514L77.1562 11.2464L83.3582 3.78019V3.78019ZM26.2636 35.3717L29.7036 48.571L24.1359 50.3496L12.7107 24.8341C12.0892 25.1608 10.9416 25.7088 9.88759 26.2255L5.75044 19.2366C7.39566 18.186 9.20003 17.2546 11.1193 16.4438C16.5055 14.153 21.6445 13.4694 25.7548 14.1956C27.2089 14.3592 28.7482 14.7879 30.0965 15.6828C31.9462 16.7245 33.3611 18.2072 34.177 20.0957C36.1669 24.694 32.8428 31.3113 26.2636 35.3717V35.3717ZM51.8614 33.0226C51.7976 34.9878 51.0758 36.9569 49.8677 38.6229C48.7184 40.2339 47.1129 41.5637 45.224 42.3767C40.3937 44.4232 35.5633 42.3768 34.2728 37.7908C33.0227 33.3566 35.9315 28.078 40.6116 26.0618C43.6006 24.7999 46.5997 25.0991 48.7481 26.5589C50.075 27.4588 51.087 28.8121 51.5594 30.5077C51.6188 30.6876 51.658 30.8765 51.6978 31.0614C51.8329 31.7075 51.8872 32.3698 51.8614 33.0226V33.0226ZM78.1429 42.3543L57.9391 32.2493L57.975 42.8368L52.7485 43.5496L52.3843 39.1855C53.9981 36.4184 54.5882 33.1577 53.7459 30.1676C53.2836 28.5241 52.4297 27.0974 51.2691 25.9542L50.5194 17.0563L48.1726 17.6648L48.0689 15.415L56.462 12.9158L56.9764 21.5722L63.1595 12.8849L69.2041 18.6415L60.751 27.5468L68.6925 30.6882C69.5795 32.3693 70.9328 33.7976 72.6307 34.85C74.272 35.8631 76.1525 36.4621 78.1418 36.6588L78.1429 42.3543ZM67.6524 27.7143L64.8422 26.63L67.4619 24.0838C67.3498 25.2527 67.4076 26.4748 67.6524 27.7143ZM89.6393 30.3615C87.7005 31.9652 85.4904 33.0109 82.5704 33.7164C81.9321 33.8626 81.3067 33.9691 80.6948 34.0229C76.0601 34.4785 72.1717 32.3502 70.6963 28.8984C70.5125 28.4804 70.3707 28.0573 70.2637 27.6056C69.5812 24.6985 70.164 22.1001 71.6002 20.0643C72.0137 19.4703 72.5046 18.929 73.056 18.4415C74.4087 17.2345 76.1357 16.3569 78.0992 15.8851C82.5143 14.8204 86.4027 16.1681 88.7865 19.0932L80.3732 28.0483C80.9436 28.1559 81.8509 28.0063 82.5205 27.846C84.5243 27.3574 85.6456 26.2938 86.6335 25.135L89.9957 28.1598L91.0144 29.0799C90.5729 29.5366 90.1089 29.9675 89.6393 30.3615V30.3615ZM107.489 42.3123L105.658 30.1889L103.07 36.8768L99.1946 28.5179H99.1509L97.6194 38.1981L91.1601 37.0741L92.0685 31.6722C92.3123 31.443 92.5521 31.2132 92.788 30.9706L94.8815 28.8149L92.8468 26.9926L95.0087 14.1284H101.526L103.157 23.0336L104.985 12.7135H109.646L111.581 25.2869C109.119 28.0909 107.923 31.8604 108.746 35.3089C109.382 37.9824 111.025 40.1353 113.38 41.3928C113.617 41.5121 113.863 41.6304 114.116 41.7323L114.362 43.3624L107.489 42.3123V42.3123ZM123.585 38.3623C122.873 38.8695 122.089 39.3004 121.246 39.6114C119.582 40.2451 117.927 40.3768 116.453 40.0838C115.425 39.8809 114.489 39.4802 113.673 38.9003C112.377 37.9622 111.422 36.577 111.001 34.8376C110.51 32.7481 110.962 30.5167 112.086 28.5622C112.647 27.6067 113.366 26.709 114.216 25.9352C115.165 25.0846 116.265 24.388 117.489 23.9173C120.337 22.8549 123.146 23.2214 125.124 24.643C125.851 25.1585 126.455 25.8147 126.93 26.5774C127.291 27.1798 127.571 27.8438 127.741 28.5689C128.347 31.0782 127.626 33.7657 126.043 35.9309C125.365 36.8538 124.538 37.6832 123.585 38.3623V38.3623ZM138.129 49.7892L133.353 48.3665L132.936 30.7565L130.534 44.3414L125.323 43.5098L125.696 39.5985C129.099 36.7233 130.903 32.1877 129.914 28.0775C129.48 26.2574 128.544 24.6727 127.225 23.4679L127.665 18.855L125.695 18.3305L125.826 15.8677L134.804 17.6721L137.823 31.9871L140.919 19.1531L147.748 20.6622L138.129 49.7892V49.7892Z" fill="url(#paint8_linear_2_82)"/>
<path d="M142.054 51.4582V50.1287H141.558V49.9509H142.752V50.1287H142.254V51.4582H142.054Z" fill="black"/>
<path d="M142.952 51.4582V49.9509H143.252L143.609 51.0181C143.642 51.1175 143.666 51.1919 143.681 51.2412C143.698 51.1864 143.725 51.1059 143.761 50.9996L144.122 49.9509H144.39V51.4582H144.198V50.1966L143.76 51.4582H143.58L143.144 50.175V51.4582H142.952Z" fill="black"/>
<defs>
<linearGradient id="paint0_linear_2_82" x1="7.45281" y1="29.9928" x2="1.8395" y2="19.5316" gradientUnits="userSpaceOnUse">
<stop stop-color="#0070B6"/>
<stop offset="1" stop-color="#1D2C5E"/>
</linearGradient>
<linearGradient id="paint1_linear_2_82" x1="75.9154" y1="8.62238" x2="83.0405" y2="0.988038" gradientUnits="userSpaceOnUse">
<stop stop-color="#0070B6"/>
<stop offset="1" stop-color="#1D2C5E"/>
</linearGradient>
<linearGradient id="paint2_linear_2_82" x1="44.8301" y1="21.3498" x2="43.9804" y2="14.2117" gradientUnits="userSpaceOnUse">
<stop stop-color="#0070B6"/>
<stop offset="1" stop-color="#1D2C5E"/>
</linearGradient>
<linearGradient id="paint3_linear_2_82" x1="122.661" y1="19.9757" x2="122.322" y2="13.5327" gradientUnits="userSpaceOnUse">
<stop stop-color="#125D9E"/>
<stop offset="1" stop-color="#1D2C5E"/>
</linearGradient>
<linearGradient id="paint4_linear_2_82" x1="98.8814" y1="10.6887" x2="91.4042" y2="22.5841" gradientUnits="userSpaceOnUse">
<stop stop-color="#125D9E"/>
<stop offset="1" stop-color="#1D2C5E"/>
</linearGradient>
<linearGradient id="paint5_linear_2_82" x1="32.7084" y1="29.7684" x2="37.8066" y2="39.7949" gradientUnits="userSpaceOnUse">
<stop stop-color="#105FA1"/>
<stop offset="1" stop-color="#1D2C5E"/>
</linearGradient>
<linearGradient id="paint6_linear_2_82" x1="13.4717" y1="26.346" x2="19.3721" y2="40.0241" gradientUnits="userSpaceOnUse">
<stop stop-color="#105FA1"/>
<stop offset="1" stop-color="#1D2C5E"/>
</linearGradient>
<linearGradient id="paint7_linear_2_82" x1="39.3683" y1="31.427" x2="48.2941" y2="31.427" gradientUnits="userSpaceOnUse">
<stop stop-color="#3C5AA6"/>
<stop offset="0.9331" stop-color="#2B73B9"/>
<stop offset="1" stop-color="#2A75BB"/>
</linearGradient>
<linearGradient id="paint8_linear_2_82" x1="2.0883" y1="26.8325" x2="151.001" y2="26.8325" gradientUnits="userSpaceOnUse">
<stop stop-color="#3C5AA6"/>
<stop offset="0.9331" stop-color="#2B73B9"/>
<stop offset="1" stop-color="#2A75BB"/>
</linearGradient>
</defs>
</svg>
